<svg width="32" height="32" fill="none" xmlns="http://www.w3.org/2000/svg"><path fill-rule="evenodd" clip-rule="evenodd" d="M28.95 16a16.96 16.96 0 0 1-1.347 6.678H16.81c1.993-3.149 4.047-6.961 4.047-10.852 0-5.006-3.287-9.22-7.757-10.473A11.28 11.28 0 0 1 16 .975C23.152.975 28.95 7.702 28.95 16Zm-11.331-4.174c0-4.149-3.261-7.512-7.284-7.512-5.383 0-7.284 7.1-7.284 11.686 0 8.298 5.797 15.025 12.949 15.025 3.835 0 7.28-1.934 9.652-5.008H10.335c.284-.375.583-.76.889-1.157 2.846-3.684 6.395-8.276 6.395-13.034z" fill="#7859cf" style="stroke-width:.821935"/></svg>