<svg width="20" height="20" viewBox="0 0 20 20" fill="none" xmlns="http://www.w3.org/2000/svg">
<path fill-rule="evenodd" clip-rule="evenodd" d="M1.4 1.39988C3.33786e-06 2.81188 3.35195e-06 5.07388 3.35195e-06 9.59988V10.3999L1.66545e-06 10.5135C-9.77702e-05 14.9698 -0.00014782 17.2116 1.4 18.5999C2.812 19.9999 5.074 19.9999 9.6 19.9999H10.4H10.5131C14.9698 20 17.2117 20 18.6 18.5999C20 17.1879 20 14.9259 20 10.3999V9.59988V9.48673C20.0001 5.03003 20.0001 2.78818 18.6 1.39988C17.188 -0.000118732 14.926 -0.000118718 10.4 -0.000118718H9.6L9.48639 -0.000120405C5.03 -0.00021984 2.78825 -0.00026989 1.4 1.39988ZM10.0194 10.1971C11.6876 10.1971 13.0477 8.83704 13.0477 7.16877C13.0477 5.50049 11.6876 4.14049 10.0194 4.14049C8.33296 4.14049 6.97295 5.50049 6.97295 7.16877C6.97295 8.83704 8.33296 10.1971 10.0194 10.1971ZM10.0194 5.91756C10.7084 5.91756 11.2706 6.4797 11.2706 7.16877C11.2706 7.85784 10.7084 8.41997 10.0194 8.41997C9.3303 8.41997 8.76816 7.85784 8.76816 7.16877C8.75003 6.4797 9.31216 5.91756 10.0194 5.91756ZM11.2343 12.6814C11.8509 12.5363 12.4493 12.3005 12.9933 11.956C13.4103 11.7021 13.5372 11.14 13.2653 10.7229C13.0114 10.3059 12.4493 10.1789 12.0322 10.4509C10.7991 11.2307 9.18524 11.2307 7.95216 10.4509C7.53509 10.1971 6.99109 10.3059 6.71909 10.7229C6.48336 11.14 6.61029 11.684 7.02736 11.9379C7.57137 12.2824 8.16977 12.5182 8.7863 12.6633L7.0999 14.3497C6.75536 14.6942 6.75536 15.2563 7.0999 15.6009C7.28123 15.7821 7.49883 15.8547 7.73456 15.8547C7.9703 15.8547 8.1879 15.764 8.36923 15.6009L10.0375 13.9326L11.7058 15.6009C12.0503 15.9454 12.6124 15.9454 12.957 15.6009C13.3015 15.2563 13.3015 14.6942 12.957 14.3497L11.2343 12.6814Z" fill="#BDBDBD"/>
</svg>
